# AST/ASF file generated using VICON BodyLanguage
# -----------------------------------------------
:version 1.10
:name VICON
:units
  mass 1.0
  length 0.45
  angle deg
:documentation
   .ast/.asf automatically generated from VICON data using
   VICON BodyBuilder and BodyLanguage model FoxedUp or BRILLIANT.MOD
:root
   order TX TY TZ RX RY RZ
   axis XYZ
   position 0 0 0  
   orientation 0 0 0 
:bonedata
  begin
     id 1 
     name lhipjoint
     direction 0.64773 -0.699417 0.302095 
     length 2.48597 
     axis 0 0 0  XYZ
  end
  begin
     id 2 
     name lfemur
     direction 0.34202 -0.939693 0  
     length 6.71947  
     axis 0 0 20  XYZ
    dof rx ry rz
    limits (-160.0 20.0)
           (-70.0 70.0)
           (-60.0 70.0)
  end
  begin
     id 3 
     name ltibia
     direction 0.34202 -0.939693 0   
     length 8.08777   
     axis 0 0 20   XYZ
    dof rx
    limits (-10.0 170.0)
  end
  begin
     id 4 
     name lfoot
     direction 0.0808503 -0.222134 0.971658   
     length 2.08264   
     axis -90 7.62852e-016 20   XYZ
    dof rx rz
    limits (-45.0 90.0)
           (-70.0 20.0)
  end
  begin
     id 5 
     name ltoes
     direction 1.53502e-011 -4.22007e-011 1   
     length 1.04662   
     axis -90 7.62852e-016 20   XYZ
    dof rx
    limits (-90.0 20.0)
  end
  begin
     id 6 
     name rhipjoint
     direction -0.610924 -0.726792 0.313919   
     length 2.39233  
     axis 0 0 0  XYZ 
  end
  begin
     id 7 
     name rfemur
     direction -0.34202 -0.939693 0   
     length 6.96955   
     axis 0 0 -20   XYZ
    dof rx ry rz
    limits (-160.0 20.0)
           (-70.0 70.0)
           (-70.0 60.0)
  end
  begin
     id 8 
     name rtibia
     direction -0.34202 -0.939693 0   
     length 8.19584   
     axis 0 0 -20   XYZ
    dof rx
    limits (-10.0 170.0)
 end
 begin
     id 9 
     name rfoot
     direction -0.077777 -0.213691 0.9738   
     length 2.07539  
     axis -90 -7.62852e-016 -20   XYZ
    dof rx rz
    limits (-45.0 90.0)
           (-20.0 70.0)
  end
  begin
     id 10 
     name rtoes
     direction -1.53558e-011 -4.22006e-011 1   
     length 1.04381   
     axis -90 -7.62852e-016 -20   XYZ
    dof rx
    limits (-90.0 20.0)
  end
  begin
     id 11 
     name lowerback
     direction -0.00971646 0.996074 0.0879841   
     length 1.67643   
     axis 0 0 0   XYZ
    dof rx ry rz
    limits (-20.0 45.0)
           (-30.0 30.0)
           (-30.0 30.0)
  end
  begin
     id 12 
     name upperback
     direction 0.0127391 0.991676 0.128127   
     length 1.63741   
     axis 0 0 0   XYZ
    dof rx ry rz
    limits (-20.0 45.0)
           (-30.0 30.0)
           (-30.0 30.0)
  end
  begin
     id 13 
     name thorax
     direction 0.0167583 0.996049 0.0872067   
     length 1.65931   
     axis 0 0 0   XYZ
    dof rx ry rz
    limits (-20.0 45.0)
           (-30.0 30.0)
           (-30.0 30.0)
  end
  begin
     id 14 
     name lowerneck
     direction -0.0317829 0.998312 0.0486079   
     length 1.79021   
     axis 0 0 0   XYZ
    dof rx ry rz
    limits (-20.0 45.0)
           (-30.0 30.0)
           (-30.0 30.0)
  end
  begin
     id 15 
     name upperneck
     direction 0.0896851 0.972452 -0.215159   
     length 1.78797   
     axis 0 0 0   XYZ
    dof rx ry rz
    limits (-20.0 45.0)
           (-30.0 30.0)
           (-30.0 30.0)
  end
  begin
     id 16
     name head
     direction 0.0310949 0.996503 -0.0775582  
     length 1.81549  
     axis 0 0 0   XYZ
    dof rx ry rz
    limits (-20.0 45.0)
           (-30.0 30.0)
           (-30.0 30.0)
  end
  begin
     id 17 
     name lclavicle
     direction 0.853638 0.502051 -0.138733  
     length 3.31627  
     axis 0 0 0   XYZ
    dof ry rz
    limits (-20.0 10.0)
           (0.0 20.0)
  end
  begin
     id 18 
     name lhumerus
     direction 1 -4.48962e-011 -1.41788e-018   
     length 5.54893   
     axis 180 -30 -90   XYZ
    dof rx ry rz
    limits (-60.0 90.0)
           (-90.0 90.0)
           (-90.0 90.0)
  end
  begin
     id 19
     name lradius
     direction 1 -4.48962e-011 -4.95754e-027   
     length 3.02898   
     axis 180 -30 -90   XYZ
    dof rx
    limits (-10.0 170.0)
  end
  begin
     id 20
     name lwrist
     direction 1 -4.48952e-011 -1.03764e-026   
     length 1.51449   
     axis 9.09556e-015 90 90   XYZ
    dof ry
    limits (-180.0 0.0)
 end
  begin
     id 21 
     name lhand
     direction 1 -4.4902e-011 -2.07528e-026   
     length 0.640951   
     axis 1.3242e-014 90 90   XYZ
    dof rx rz
    limits (-90.0 90.0)
           (-45.0 45.0)
  end
  begin
     id 22 
     name lfingers
     direction 1 -4.49014e-011 -4.15056e-026   
     length 0.516751   
     axis 2.64841e-014 90 90   XYZ
    dof rx
    limits (0.0 90.0)
  end
  begin
     id 23
     name lthumb
     direction 0.707107 -6.35008e-011 0.707107   
     length 0.741954   
     axis -90 45 2.85299e-015   XYZ
    dof rx rz
    limits (-45.0 45.0)
           (-45.0 45.0)
  end
  begin
     id 24 
     name rclavicle
     direction -0.888531 0.455324 -0.0565039   
     length 3.20126  
     axis 0 0 0   XYZ 
    dof ry rz
    limits (-10.0 20.0)
           (-20.0 0.0)
  end
  begin
     id 25 
     name rhumerus
     direction -1 -4.48946e-011 -8.98298e-028  
     length 5.3519   
     axis 180 30 90   XYZ
    dof rx ry rz
    limits (-90.0 60.0)
           (-90.0 90.0)
           (-90.0 90.0)
  end
  begin
     id 26 
     name rradius
     direction -1 -4.4899e-011 -3.18779e-027   
     length 3.02531   
     axis 180 30 90   XYZ
    dof rx
    limits (-10.0 170.0)
  end
  begin
     id 27 
     name rwrist
     direction -1 -4.4897e-011 -1.03764e-026   
     length 1.51266   
     axis 9.09556e-015 -90 -90   XYZ
    dof ry
    limits (-180.0 0.0)
  end
  begin
     id 28
     name rhand
     direction -1 -4.48941e-011 -2.07528e-026   
     length 0.78389   
     axis 1.3242e-014 -90 -90   XYZ
    dof rx rz
    limits (-90.0 90.0)
           (-45.0 45.0)
  end
  begin
     id 29
     name rfingers
     direction -1 -4.49012e-011 -4.15056e-026   
     length 0.631992   
     axis 2.64841e-014 -90 -90   XYZ
    dof rx
    limits (0.0 90.0)
  end
  begin
     id 30
     name rthumb
     direction -0.707107 -6.3496e-011 0.707107   
     length 0.907418   
     axis -90 -45 -2.85299e-015   XYZ
    dof rx rz
    limits (-45.0 45.0)
           (-45.0 45.0)
  end
:hierarchy
  begin
    root lhipjoint rhipjoint lowerback
    lhipjoint lfemur
    lfemur ltibia
    ltibia lfoot
    lfoot ltoes
    rhipjoint rfemur
    rfemur rtibia
    rtibia rfoot
    rfoot rtoes
    lowerback upperback
    upperback thorax
    thorax lowerneck lclavicle rclavicle
    lowerneck upperneck
    upperneck head
    lclavicle lhumerus
    lhumerus lradius
    lradius lwrist
    lwrist lhand lthumb
    lhand lfingers
    rclavicle rhumerus
    rhumerus rradius
    rradius rwrist
    rwrist rhand rthumb
    rhand rfingers
  end

#!OML:ASF E:\Style3\Style3.ASF
:FULLY-SPECIFIED
:DEGREES
1609
root 0.524735 17.8098 1.07082 9.97594 71.7708 353.448
lowerback -8.84545 -2.6441 -1.26705
upperback -11.3275 -2.90204 2.47598
thorax -6.77126 -1.04515 3.20456
lowerneck -10.2255 3.01895 -2.6782
upperneck 20.8835 3.06774 8.94285
head 7.92328 2.23929 3.73975
rclavicle 4.64659e-014 9.93923e-015
rhumerus -1.04416 19.7408 -73.2787
rradius 122.893
rwrist 5.72768
rhand 24.7113 10.8624
rfingers 7.12502
rthumb 48.896 -10.9213
lclavicle 4.64659e-014 9.93923e-015
lhumerus -5.87675 -16.7176 77.2702
lradius 123.307
lwrist 4.89428
lhand 12.3096 28.7874
lfingers 7.12502
lthumb 37.3135 54.7701
rfemur -21.7052 14.9219 13.9659
rtibia 16.5471
rfoot -12.902 -0.850413
rtoes -22.8503
lfemur -2.92381 20.6258 -16.8089
ltibia 2.22639e-014
lfoot -10.809 0.985272
ltoes 11.0142
1610
root 0.521752 17.8115 1.07848 10.0921 71.7516 353.582
lowerback -8.66837 -2.62955 -1.28087
upperback -11.3472 -2.88823 2.40903
thorax -6.89552 -1.0387 3.15059
lowerneck -10.305 3.21071 -2.51864
upperneck 20.8943 3.31862 8.87409
head 7.93026 2.36545 3.71457
rclavicle -8.99004e-014 -2.14687e-014
rhumerus -1.58329 20.1992 -73.5097
rradius 122.565
rwrist 6.24451
rhand 24.4274 11.3626
rfingers 7.12502
rthumb 48.6349 -10.5485
lclavicle -8.99004e-014 -2.14687e-014
lhumerus -6.45418 -16.4446 77.6536
lradius 123.143
lwrist 5.07058
lhand 11.8107 27.9251
lfingers 7.12502
lthumb 36.8416 54.0303
rfemur -21.6587 14.7871 13.9967
rtibia 16.5061
rfoot -12.9128 -0.791217
rtoes -22.8227
lfemur -2.9442 20.6463 -16.8503
ltibia -4.77083e-015
lfoot -10.7546 1.10834
ltoes 10.2292
1611
root 0.517518 17.8128 1.08698 10.1972 71.8131 353.66
lowerback -8.52118 -2.61125 -1.2978
upperback -11.406 -2.86558 2.3316
thorax -7.04756 -1.02555 3.08746
lowerneck -10.2451 3.39193 -2.24908
upperneck 20.8602 3.55726 8.70777
head 7.90334 2.48249 3.63165
rclavicle 1.43622e-014 -2.00773e-014
rhumerus -2.22007 20.6464 -73.7759
rradius 122.276
rwrist 6.40309
rhand 24.872 11.3718
rfingers 7.12502
rthumb 49.0436 -10.339
lclavicle 1.43622e-014 -2.00773e-014
lhumerus -7.14955 -16.2879 78.1584
lradius 123.071
lwrist 4.90915
lhand 11.9208 27.7514
lfingers 7.12502
lthumb 36.9458 53.8299
rfemur -21.6632 14.7416 14.0048
rtibia 16.4812
rfoot -12.9276 -0.823265
rtoes -22.5202
lfemur -3.02826 20.5934 -16.8757
ltibia 0
lfoot -10.6907 1.21267
ltoes 9.35591
1612
root 0.513559 17.8138 1.09708 10.2143 71.9459 353.678
lowerback -8.45019 -2.59173 -1.32159
upperback -11.3882 -2.84396 2.27017
thorax -7.07076 -1.01614 3.03895
lowerneck -10.0827 3.55869 -2.05942
upperneck 20.6047 3.80341 8.50741
head 7.78374 2.58716 3.53974
rclavicle -4.5969e-015 -2.04748e-014
rhumerus -2.74719 21.0788 -74.0215
rradius 121.947
rwrist 6.59701
rhand 25.8378 11.2085
rfingers 7.12502
rthumb 49.9292 -10.0514
lclavicle -4.5969e-015 -2.04748e-014
lhumerus -7.65826 -16.1721 78.5108
lradius 122.945
lwrist 4.23518
lhand 12.3396 28.5712
lfingers 7.12502
lthumb 37.3418 54.5465
rfemur -21.6143 14.7 14.0499
rtibia 16.4552
rfoot -12.9356 -0.944118
rtoes -22.6765
lfemur -3.09719 20.473 -16.8551
ltibia 3.18055e-015
lfoot -10.6485 1.35394
ltoes 8.37977
1613
root 0.511294 17.8127 1.10504 10.1062 72.1095 353.591
lowerback -8.4307 -2.55603 -1.28863
upperback -11.295 -2.80532 2.23462
thorax -6.98353 -1.00561 2.98186
lowerneck -10.04 3.73956 -1.98664
upperneck 20.3528 4.06928 8.40044
head 7.68165 2.70271 3.50378
rclavicle -1.64991e-014 -1.86858e-014
rhumerus -3.09115 21.5091 -74.234
rradius 121.614
rwrist 6.72662
rhand 27.2953 10.9789
rfingers 7.12502
rthumb 51.2597 -9.55639
lclavicle -1.64991e-014 -1.86858e-014
lhumerus -8.02698 -16.0035 78.7777
lradius 122.732
lwrist 3.11361
lhand 13.2081 29.5911
lfingers 7.12502
lthumb 38.1624 55.346
rfemur -21.5196 14.4788 14.1612
rtibia 16.4008
rfoot -12.9687 -0.79403
rtoes -22.375
lfemur -3.12405 20.3258 -16.7916
ltibia 3.18055e-015
lfoot -10.7184 1.46458
ltoes 7.95595
1614
root 0.506621 17.8089 1.11186 9.82582 72.2954 353.34
lowerback -8.3641 -2.49363 -1.21049
upperback -11.2126 -2.7327 2.18797
thorax -6.93929 -0.980783 2.89119
lowerneck -9.99327 3.93463 -1.70597
upperneck 20.2007 4.33526 8.19248
head 7.62155 2.827 3.40379
rclavicle -1.46604e-014 2.38542e-015
rhumerus -3.37405 21.8054 -74.4562
rradius 121.278
rwrist 6.75249
rhand 29.2532 10.6882
rfingers 7.12502
rthumb 53.0343 -8.78248
lclavicle -1.46604e-014 2.38542e-015
lhumerus -8.43506 -16.0259 79.0361
lradius 122.441
lwrist 1.40745
lhand 14.1813 30.4401
lfingers 7.12502
lthumb 39.0804 55.937
rfemur -21.4222 14.3902 14.2947
rtibia 16.3644
rfoot -13.0131 -0.840985
rtoes -22.3818
lfemur -3.15957 20.1642 -16.673
ltibia 7.95139e-015
lfoot -10.7787 1.58106
ltoes 7.89123
1615
root 0.500919 17.8069 1.1203 9.39111 72.5691 352.911
lowerback -8.26043 -2.45409 -1.14176
upperback -11.1475 -2.68771 2.17362
thorax -6.93165 -0.966262 2.84108
lowerneck -10.0729 4.13056 -1.44924
upperneck 20.1646 4.59708 8.00905
head 7.62272 2.95349 3.32432
rclavicle 5.14355e-015 -1.3418e-014
rhumerus -3.58673 22.0794 -74.6702
rradius 120.955
rwrist 6.89858
rhand 31.4333 10.5216
rfingers 7.12502
rthumb 54.9907 -7.62379
lclavicle 5.14355e-015 -1.3418e-014
lhumerus -8.81119 -16.0772 79.2131
lradius 122.08
lwrist -0.737234
lhand 15.6078 30.8744
lfingers 7.12502
lthumb 40.4235 55.9713
rfemur -21.3326 14.2756 14.493
rtibia 16.3427
rfoot -13.051 -0.963393
rtoes -22.7456
lfemur -3.24498 19.9235 -16.5047
ltibia -3.18055e-015
lfoot -10.7558 1.78392
ltoes 7.04093
1616
root 0.497777 17.8076 1.1278 9.32189 72.8651 352.836
lowerback -8.25932 -2.38452 -1.16194
upperback -11.0588 -2.60154 2.10607
thorax -6.84093 -0.92831 2.78067
lowerneck -10.1964 4.28074 -1.28473
upperneck 20.0934 4.78761 7.94919
head 7.61864 3.05069 3.29518
rclavicle 3.43152e-014 -2.51463e-014
rhumerus -3.71323 22.226 -74.8389
rradius 120.699
rwrist 7.35041
rhand 33.8159 10.617
rfingers 7.12502
rthumb 57.101 -5.88455
lclavicle 3.43152e-014 -2.51463e-014
lhumerus -8.95908 -16.134 79.1907
lradius 121.759
lwrist -2.93056
lhand 18.1411 30.9562
lfingers 7.12502
lthumb 42.7996 55.2725
rfemur -21.2451 13.9777 14.5977
rtibia 16.2977
rfoot -13.1487 -0.925254
rtoes -23.0163
lfemur -3.33082 19.6436 -16.4542
ltibia 1.90833e-014
lfoot -10.7151 1.91658
ltoes 6.48487
1617
root 0.495744 17.8072 1.1355 9.38435 73.2053 352.868
lowerback -8.32814 -2.23901 -1.18894
upperback -10.9979 -2.4138 1.93415
thorax -6.75099 -0.841678 2.61528
lowerneck -10.1269 4.35101 -0.95495
upperneck 19.9204 4.85616 7.83144
head 7.56011 3.09335 3.19951
rclavicle -5.01186e-014 2.08724e-015
rhumerus -3.87866 22.0579 -75.0855
rradius 120.519
rwrist 8.00531
rhand 36.5707 11.0427
rfingers 7.12502
rthumb 59.4968 -3.25524
lclavicle -5.01186e-014 2.08724e-015
lhumerus -8.99123 -16.5162 79.0159
lradius 121.585
lwrist -4.82288
lhand 21.0882 30.9873
lfingers 7.12502
lthumb 45.5474 54.268
rfemur -21.1743 13.7126 14.6503
rtibia 16.2377
rfoot -13.1877 -0.939145
rtoes -22.7811
lfemur -3.44673 19.3164 -16.4418
ltibia 6.36111e-015
lfoot -10.7162 2.02831
ltoes 6.38517
